<svg xmlns="http://www.w3.org/2000/svg" width="48" height="48" viewBox="0 0 48 48">
  <g fill="#FFF" fill-rule="evenodd" transform="translate(6 7)">
    <path fill-rule="nonzero" d="M2,10 L34,10 C35.1045695,10 36,10.8954305 36,12 L36,27 C36,30.8659932 32.8659932,34 29,34 L7,34 C3.13400675,34 0,30.8659932 0,27 L0,12 C0,10.8954305 0.8954305,10 2,10 Z M3,10 L3,26 C3,28.7614237 5.23857625,31 8,31 L28,31 C30.7614237,31 33,28.7614237 33,26 L33,10 L3,10 Z"/>
    <path fill-opacity=".5" d="M12.5,8 C13.3284271,8 14,8.67157288 14,9.5 L14,19 L23.5,19 C24.3284271,19 25,19.6715729 25,20.5 C25,21.3284271 24.3284271,22 23.5,22 L12.5,22 L12.5,22 C11.6715729,22 11,21.3284271 11,20.5 L11,9.5 C11,8.67157288 11.6715729,8 12.5,8 Z" transform="rotate(-45 18 15)"/>
    <rect width="4" height="21" x="16" fill-opacity=".3" rx="2"/>
  </g>
</svg>
