<svg xmlns="http://www.w3.org/2000/svg" width="48" height="48" viewBox="0 0 48 48">
  <g fill="none" fill-rule="evenodd" stroke="#FFF" stroke-width="3" transform="translate(7 4)">
    <path stroke-opacity=".3" d="M13.5,37.499206 L20.5,37.499206 L20.5,29.999206 C20.5,28.0662094 18.9329966,26.499206 17,26.499206 C15.0670034,26.499206 13.5,28.0662094 13.5,29.999206 L13.5,37.499206 Z"/>
    <path d="M1.350193,17.4690034 L1.07561886,17.7514909 L1.19028533,17.4690034 L1.350193,17.4690034 Z M1.5,17.3148789 L1.5,17.4690034 L2.5,17.4690034 L2.5,34.9992059 C2.5,36.3799178 3.61928813,37.4992059 5,37.4992059 L29,37.4992059 C30.3807119,37.4992059 31.5,36.3799178 31.5,34.9992059 L31.5,17.4690034 L32.5,17.4690034 L32.5,17.3148789 L18.7927068,3.21253575 C18.7678264,3.1871795 18.7678264,3.1871795 18.7424702,3.16229915 C17.7523856,2.19995944 16.1696329,2.22245113 15.207288,3.21254111 L1.5,17.3148789 Z M32.649807,17.4690034 L32.8097147,17.4690034 L32.9243811,17.7514909 L32.649807,17.4690034 Z"/>
  </g>
</svg>
